<svg width="512" height="512" viewBox="0 0 512 512" fill="none" xmlns="http://www.w3.org/2000/svg">
  <rect width="512" height="512" rx="105" fill="#0a0a14"/>
  <g transform="translate(76.8 76.8) scale(0.7)">
    <path 
      fill="#ffffff"
      d="M303.423 159H409.896C452.982 159 487.94 193.958 487.94 237.043V338.64H444.216V237.043C444.216 236.006 444.174 234.975 444.096 233.952L337.623 338.622C337.983 338.634 338.343 338.64 338.703 338.64H444.216V379.92H338.703C295.617 379.92 259.619 344.551 259.619 301.465V200.179H303.423V301.465C303.423 303.406 303.573 305.328 303.867 307.22L412.53 200.293C411.615 200.217 410.685 200.179 409.746 200.179H303.423V159Z"/>
    <path 
      fill="#ffffff"
      d="M195.78 372.328L42 200.156H103.83L194.183 301.208V200.156H240.33V355.344C240.33 378.706 211.402 389.703 195.78 372.328Z"/>
  </g>
</svg>
